<svg width="1878" height="1980" xmlns="http://www.w3.org/2000/svg" xmlns:xlink="http://www.w3.org/1999/xlink" xml:space="preserve" overflow="hidden"><defs><radialGradient cx="5200592" cy="5200592" r="7354748" fx="5200592" fy="5200592" gradientUnits="userSpaceOnUse" spreadMethod="pad" id="fill0" gradientTransform="matrix(9.34058e-05 -0.000348595 0.000348595 9.34058e-05 1050.67 1901.07)"><stop offset="0" stop-color="#8E0000"/><stop offset="0.26" stop-color="#8E0000"/><stop offset="0.71"/><stop offset="1"/></radialGradient></defs><g transform="translate(-1261 -298)"><path d="M1293.55 994.617C1427.69 493.998 1942.26 196.909 2442.88 331.049 2943.5 465.19 3240.59 979.764 3106.45 1480.38 3072.92 1605.54 3015.6 1717.97 2940.68 1814.13L2916.32 1842.43 2941.34 1802.94C3085.59 1547.41 3088.67 1209.67 2921.43 919.995 2678.16 498.649 2166.66 338.542 1778.95 562.385 1391.24 786.228 1274.15 1309.26 1517.41 1730.6 1639.05 1941.27 1827.74 2086.64 2034.48 2151.35L2107 2170.3 2051.05 2164.1C2019.75 2159.03 1988.41 2152.33 1957.12 2143.95 1456.5 2009.81 1159.41 1495.24 1293.55 994.617Z" fill="url(#fill0)" fill-rule="evenodd"/><text font-family="Montserrat,Montserrat_MSFontService,sans-serif" font-weight="700" font-size="165" transform="matrix(1 0 0 1 1805.86 1972)">KSV </text><text fill="#8E0000" font-family="Montserrat,Montserrat_MSFontService,sans-serif" font-weight="700" font-size="165" transform="matrix(1 0 0 1 2203.46 1972)">Rochade</text><text font-family="Montserrat,Montserrat_MSFontService,sans-serif" font-weight="700" font-size="147" transform="matrix(1 0 0 1 2186.27 2153)">Göttingen</text><path d="M2079 632 2090 632C2091.52 632 2092.75 633.232 2092.75 634.752L2092.75 679.162 2138.89 679.162C2140.41 679.162 2141.64 680.394 2141.64 681.914L2141.64 692.922C2141.64 694.442 2140.41 695.674 2138.89 695.674L2092.75 695.674 2092.75 743.664C2092.75 745.183 2091.52 746.416 2090 746.416L2134.66 746.416C2138.51 746.416 2141.64 749.547 2141.64 753.411L2141.64 787.526 2203.1 787.526C2244.52 786.898 2204.99 1043.57 2169.44 1075.95L2166.67 1077.27 2239.87 1077.27C2243.73 1077.27 2246.86 1080.4 2246.86 1084.26L2246.86 1112.24C2246.86 1116.11 2243.73 1119.24 2239.87 1119.24L2163.54 1119.24 2170.68 1123.9C2204.63 1167.83 2233.29 1479.31 2215.24 1561.43L2212.07 1570.71 2285.88 1570.71C2290.31 1570.71 2293.9 1574.31 2293.9 1578.74L2293.9 1610.85C2293.9 1615.28 2290.31 1618.87 2285.88 1618.87L2274.5 1618.87 2274.5 1679.8 2276.86 1680.17C2320.16 1693.56 2360.07 1748.92 2328.89 1749L1837.51 1749C1810.23 1748.91 1853.96 1695.34 1892.25 1682.38L1894.51 1681.98 1894.51 1618.87 1883.12 1618.87C1878.69 1618.87 1875.1 1615.28 1875.1 1610.85L1875.1 1578.74C1875.1 1574.31 1878.69 1570.71 1883.12 1570.71L1956.69 1570.71 1953.45 1561.7C1934.95 1480.06 1968.75 1168.52 1999.56 1124.03L2005.92 1119.24 1929.13 1119.24C1925.27 1119.24 1922.14 1116.11 1922.14 1112.24L1922.14 1084.26C1922.14 1080.4 1925.27 1077.27 1929.13 1077.27L2001.32 1077.27 1998.32 1076.04C1959.14 1044.06 1927.02 787.38 1965.55 787.526L2027.36 787.526 2027.36 753.411C2027.36 749.547 2030.49 746.416 2034.34 746.416L2079 746.416C2077.48 746.416 2076.25 745.183 2076.25 743.664L2076.25 695.674 2030.11 695.674C2028.59 695.674 2027.36 694.442 2027.36 692.922L2027.36 681.914C2027.36 680.394 2028.59 679.162 2030.11 679.162L2076.25 679.162 2076.25 634.752C2076.25 633.232 2077.48 632 2079 632Z" fill-rule="evenodd"/><path d="M2452.66 935.12 2455.49 935.132 2452.66 935.132ZM2317.19 934 2383.25 934C2387.76 934 2391.42 937.651 2391.42 942.155L2391.42 982.925 2452.66 982.925 2452.66 952.025 2453.8 946.39C2455.67 941.98 2459.21 938.446 2463.63 936.581L2470.5 935.196 2513.21 935.378C2551.56 936.125 2509.01 1044.5 2457.74 1073.53L2438.84 1079.51 2475.13 1079.51C2478.23 1079.51 2480.74 1082.01 2480.74 1085.11L2480.74 1107.53C2480.74 1110.62 2478.23 1113.13 2475.13 1113.13L2429.36 1113.13 2435.1 1116.18C2468.54 1151.38 2496.77 1400.94 2478.99 1466.75L2476.62 1472.39 2512.11 1472.39C2515.67 1472.39 2518.56 1475.27 2518.56 1478.82L2518.56 1504.55C2518.56 1508.1 2515.67 1510.98 2512.11 1510.98L2494.79 1510.98 2494.79 1565.22 2509.96 1567.35C2553.27 1578.91 2571.75 1621.94 2546.69 1622L2304.64 1622 2304.64 1603.77 2304.67 1603.7 2304.67 1571.92C2304.67 1567.53 2301.11 1563.98 2296.71 1563.98L2223.4 1563.98 2226.56 1554.79C2235.52 1514.15 2232.88 1416.75 2223.79 1324.08L2222.28 1311.19 2225.63 1280.46C2235.47 1205.42 2251.38 1134.11 2266.55 1116.29L2271.69 1113.13 2256.73 1113.13 2257.96 1110.18 2257.96 1082.48 2256.72 1079.51 2261.38 1079.51 2256.04 1077.87 2255.92 1077.59C2254.67 1076.34 2252.93 1075.56 2251.02 1075.56L2248.51 1075.56 2244.05 1074.19C2231.72 1067.15 2219.38 1054.86 2208.5 1040.4L2202 1030.48 2206.97 1016.04C2210.97 1001.88 2214.71 986.118 2218.01 969.678L2223.96 934.146 2230.51 934.173 2236.84 935.449C2241.26 937.314 2244.81 940.847 2246.67 945.258L2247.77 950.693 2247.77 982.925 2309.01 982.925 2309.01 942.155C2309.01 937.651 2312.67 934 2317.19 934Z" fill="#8E0000" fill-rule="evenodd"/></g></svg>